<svg width="313" height="64" viewBox="0 0 313 64" fill="none" xmlns="http://www.w3.org/2000/svg">
<rect x="1" y="1" width="311" height="62" rx="31" stroke="#049AD6" stroke-width="2"/>
<path d="M62.4461 41.32C60.4461 41.32 58.7128 40.8667 57.2461 39.96C55.7794 39.0267 54.6328 37.7733 53.8061 36.2C53.0061 34.6267 52.6061 32.8933 52.6061 31C52.6061 29.08 53.0061 27.3467 53.8061 25.8C54.6328 24.2267 55.7794 22.9867 57.2461 22.08C58.7128 21.1467 60.4461 20.68 62.4461 20.68C64.8194 20.68 66.8328 21.2933 68.4861 22.52C70.1661 23.7467 71.2994 25.3333 71.8861 27.28H68.6461C68.1928 26.1333 67.4594 25.2 66.4461 24.48C65.4594 23.76 64.2594 23.4 62.8461 23.4C61.3794 23.4 60.0994 23.7467 59.0061 24.44C57.9128 25.1333 57.0728 26.0533 56.4861 27.2C55.8994 28.3467 55.6061 29.6133 55.6061 31C55.6061 32.36 55.8994 33.6267 56.4861 34.8C57.0728 35.9467 57.9128 36.8667 59.0061 37.56C60.0994 38.2533 61.3794 38.6 62.8461 38.6C64.2594 38.6 65.4594 38.24 66.4461 37.52C67.4594 36.8 68.1928 35.8667 68.6461 34.72H71.8861C71.2994 36.6667 70.1661 38.2533 68.4861 39.48C66.8328 40.7067 64.8194 41.32 62.4461 41.32ZM78.3372 41C76.8795 41 75.6172 40.6089 74.5506 39.8267C73.5195 39.0089 73.0039 37.8 73.0039 36.2C73.0039 34.8489 73.5195 33.7111 74.5506 32.7867C75.6172 31.8622 76.8795 31.4 78.3372 31.4C79.795 31.4 81.0395 31.8622 82.0706 32.7867C83.1372 33.7111 83.6706 34.8489 83.6706 36.2C83.6706 39.4 81.8928 41 78.3372 41ZM78.3372 37.2667C78.6217 37.2667 78.8706 37.16 79.0839 36.9467C79.2972 36.7333 79.4039 36.4844 79.4039 36.2C79.4039 35.9156 79.2972 35.6667 79.0839 35.4533C78.8706 35.24 78.6217 35.1333 78.3372 35.1333C78.0528 35.1333 77.8039 35.24 77.5906 35.4533C77.3772 35.6667 77.2706 35.9156 77.2706 36.2C77.2706 36.4844 77.3772 36.7333 77.5906 36.9467C77.8039 37.16 78.0528 37.2667 78.3372 37.2667ZM91.6164 39.8C91.6164 40.12 91.4964 40.4 91.2564 40.64C91.0164 40.88 90.7364 41 90.4164 41C90.0697 41 89.7764 40.88 89.5364 40.64C89.3231 40.4 89.2164 40.12 89.2164 39.8V12.6C89.2164 12.28 89.3364 12 89.5764 11.76C89.8164 11.52 90.0964 11.4 90.4164 11.4C90.7631 11.4 91.0431 11.52 91.2564 11.76C91.4964 12 91.6164 12.28 91.6164 12.6V39.8ZM114.035 37.52V41H102.875L98.2352 38.32V23.48L102.875 20.8H109.395L114.035 23.48V32.36H102.115V37.52H114.035ZM102.115 24.28V28.88H110.155V24.28H102.115ZM134.098 30.0039C134.098 30.3815 134.039 30.7526 133.922 31.1172C133.805 31.4688 133.635 31.7878 133.414 32.0742C133.193 32.3477 132.913 32.569 132.574 32.7383C132.249 32.9076 131.865 32.9922 131.422 32.9922C131.174 32.9922 130.908 32.9466 130.621 32.8555C130.335 32.7513 130.068 32.6016 129.82 32.4062C129.586 32.2109 129.384 31.9701 129.215 31.6836C129.059 31.3841 128.98 31.0391 128.98 30.6484C128.98 30.4271 129.007 30.1992 129.059 29.9648C129.111 29.7174 129.163 29.4701 129.215 29.2227C129.28 28.9753 129.339 28.7409 129.391 28.5195C129.443 28.2982 129.469 28.0964 129.469 27.9141C129.469 26.9896 129.247 26.2669 128.805 25.7461C128.362 25.2253 127.809 24.9648 127.145 24.9648C126.728 24.9648 126.344 25.1927 125.992 25.6484C125.641 26.0911 125.335 26.7031 125.074 27.4844C124.827 28.2656 124.632 29.1771 124.488 30.2188C124.358 31.2474 124.293 32.3477 124.293 33.5195C124.293 36.2279 124.612 38.2461 125.25 39.5742C125.888 40.9023 126.721 41.5664 127.75 41.5664C128.375 41.5664 128.954 41.4232 129.488 41.1367C130.035 40.8633 130.536 40.4987 130.992 40.043C131.448 39.5872 131.845 39.0794 132.184 38.5195C132.535 37.9466 132.828 37.3737 133.062 36.8008L133.785 37.0352C133.499 37.9206 133.134 38.6693 132.691 39.2812C132.249 39.8802 131.773 40.3815 131.266 40.7852C130.758 41.1888 130.243 41.5013 129.723 41.7227C129.215 41.944 128.74 42.1068 128.297 42.2109C127.867 42.3281 127.503 42.3932 127.203 42.4062C126.904 42.4323 126.721 42.4453 126.656 42.4453C125.38 42.4453 124.228 42.1784 123.199 41.6445C122.184 41.1237 121.318 40.4596 120.602 39.6523C119.898 38.8451 119.358 37.9531 118.98 36.9766C118.603 36 118.414 35.0625 118.414 34.1641C118.414 33.5651 118.492 32.9076 118.648 32.1914C118.805 31.4622 119.039 30.7331 119.352 30.0039C119.677 29.2617 120.081 28.5456 120.562 27.8555C121.044 27.1654 121.604 26.5534 122.242 26.0195C122.88 25.4857 123.596 25.056 124.391 24.7305C125.185 24.4049 126.064 24.2422 127.027 24.2422C128.199 24.2422 129.228 24.418 130.113 24.7695C130.999 25.1211 131.734 25.5768 132.32 26.1367C132.919 26.6966 133.362 27.3151 133.648 27.9922C133.948 28.6693 134.098 29.3398 134.098 30.0039ZM139.951 41V23.64H135.871V21H139.951V13.84H142.951V21H147.551V23.64H142.951V41H139.951ZM158.318 41.16C158.132 41.16 157.852 41.1467 157.478 41.12C157.105 41.0933 156.705 41.0667 156.278 41.04C155.852 41.04 155.452 41.0267 155.078 41C154.705 41 154.425 41 154.238 41H153.678C153.492 41 153.198 41 152.798 41C152.425 41.0267 152.025 41.04 151.598 41.04C151.198 41.0667 150.798 41.0933 150.398 41.12C150.025 41.1467 149.745 41.16 149.558 41.16L149.518 41L149.558 40.44L149.718 40.28C150.145 40.28 150.558 40.2667 150.958 40.24C151.385 40.1867 151.705 40.0533 151.918 39.84C152.132 39.6533 152.265 39.4133 152.318 39.12C152.398 38.8267 152.465 38.4133 152.518 37.88C152.545 37.4533 152.572 37.0267 152.598 36.6C152.625 36.1467 152.638 35.44 152.638 34.48V29.56C152.638 29 152.638 28.5333 152.638 28.16C152.638 27.76 152.625 27.4133 152.598 27.12C152.598 26.8267 152.585 26.56 152.558 26.32C152.558 26.08 152.545 25.8267 152.518 25.56C152.465 25.2667 152.385 25.0133 152.278 24.8C152.172 24.56 152.078 24.4 151.998 24.32C151.732 24 151.398 23.8133 150.998 23.76C150.598 23.68 150.185 23.64 149.758 23.64L149.598 23.48V22.92L149.758 22.8H150.478C150.932 22.8 151.505 22.8 152.198 22.8C152.892 22.7733 153.492 22.72 153.998 22.64L155.398 22.44L155.638 22.8C155.585 22.9067 155.532 23.0933 155.478 23.36C155.452 23.6267 155.425 23.92 155.398 24.24C155.398 24.5333 155.385 24.8267 155.358 25.12C155.358 25.4133 155.358 25.64 155.358 25.8C155.358 26.0133 155.345 26.2267 155.318 26.44C155.318 26.6267 155.318 26.8533 155.318 27.12C155.318 27.3867 155.305 27.7067 155.278 28.08C155.278 28.4533 155.278 28.9333 155.278 29.52V34C155.278 34.5867 155.278 35.0667 155.278 35.44C155.305 35.8133 155.318 36.1333 155.318 36.4C155.345 36.6667 155.358 36.92 155.358 37.16C155.385 37.3733 155.412 37.6133 155.438 37.88C155.492 38.44 155.545 38.8667 155.598 39.16C155.678 39.4267 155.825 39.6533 156.038 39.84C156.252 40.0267 156.545 40.1467 156.918 40.2C157.318 40.2533 157.718 40.28 158.118 40.28L158.318 40.48L158.398 41L158.318 41.16ZM151.598 15.76C151.598 15.2267 151.772 14.7733 152.118 14.4C152.492 14 152.945 13.8 153.478 13.8C154.012 13.8 154.465 14 154.838 14.4C155.238 14.7733 155.438 15.2267 155.438 15.76C155.438 16.2933 155.238 16.7467 154.838 17.12C154.465 17.4667 154.012 17.64 153.478 17.64C152.945 17.64 152.492 17.4667 152.118 17.12C151.772 16.7467 151.598 16.2933 151.598 15.76ZM168.813 41.48L161.013 23C160.24 22.7333 159.533 22.4133 158.893 22.04V21H167.253V22C166.906 22.1867 166.546 22.3733 166.173 22.56C165.826 22.72 165.426 22.8667 164.973 23L169.613 35.04L170.413 37.52H170.493L171.093 35L175.373 23C174.946 22.8933 174.546 22.76 174.173 22.6C173.826 22.44 173.493 22.2533 173.173 22.04V21H179.973V22.04C179.706 22.2267 179.373 22.4 178.973 22.56C178.6 22.72 178.173 22.8667 177.693 23L170.613 41L168.813 41.48ZM191.046 41.32C189.02 41.32 187.246 40.8667 185.726 39.96C184.206 39.0267 183.02 37.7733 182.166 36.2C181.34 34.6267 180.926 32.8933 180.926 31C180.926 29.08 181.326 27.3467 182.126 25.8C182.926 24.2267 184.073 22.9867 185.566 22.08C187.06 21.1467 188.82 20.68 190.846 20.68C192.9 20.68 194.66 21.1467 196.126 22.08C197.62 22.9867 198.766 24.2267 199.566 25.8C200.366 27.3467 200.766 29.08 200.766 31V32.2H184.006C184.166 33.3733 184.54 34.4533 185.126 35.44C185.74 36.4 186.553 37.1733 187.566 37.76C188.58 38.32 189.753 38.6 191.086 38.6C192.5 38.6 193.686 38.2933 194.646 37.68C195.606 37.04 196.353 36.2267 196.886 35.24H200.166C199.473 37.0267 198.366 38.4933 196.846 39.64C195.353 40.76 193.42 41.32 191.046 41.32ZM184.046 29.4H197.646C197.38 27.6933 196.66 26.2667 195.486 25.12C194.313 23.9733 192.766 23.4 190.846 23.4C188.926 23.4 187.38 23.9733 186.206 25.12C185.06 26.2667 184.34 27.6933 184.046 29.4ZM226.5 41.7617C226.786 41.7357 227.06 41.5924 227.32 41.332C227.542 41.1107 227.77 40.7591 228.004 40.2773C228.238 39.7826 228.434 39.0794 228.59 38.168L229.312 38.2461C229.13 39.3268 228.883 40.1536 228.57 40.7266C228.271 41.2995 227.965 41.7161 227.652 41.9766C227.288 42.2891 226.904 42.4583 226.5 42.4844C226.188 42.4844 225.784 42.4388 225.289 42.3477C224.807 42.2565 224.326 42.0938 223.844 41.8594C223.362 41.638 222.919 41.3385 222.516 40.9609C222.112 40.5833 221.832 40.1016 221.676 39.5156C221.142 40.4141 220.426 41.1432 219.527 41.7031C218.629 42.276 217.607 42.5625 216.461 42.5625C215.888 42.5625 215.309 42.4974 214.723 42.3672C214.137 42.237 213.596 42.0221 213.102 41.7227C212.62 41.4232 212.223 41.0326 211.91 40.5508C211.611 40.056 211.461 39.444 211.461 38.7148C211.461 37.8034 211.637 37.0156 211.988 36.3516C212.353 35.6745 212.835 35.1146 213.434 34.6719C214.033 34.2161 214.716 33.8776 215.484 33.6562C216.253 33.4349 217.047 33.3242 217.867 33.3242C218.427 33.3242 218.967 33.3893 219.488 33.5195C220.022 33.6497 220.562 33.8776 221.109 34.2031C221.135 33.5391 221.188 32.875 221.266 32.2109C221.357 31.5469 221.435 30.9284 221.5 30.3555C221.539 30.0169 221.565 29.7435 221.578 29.5352C221.604 29.3268 221.624 29.1576 221.637 29.0273C221.65 28.8971 221.656 28.7995 221.656 28.7344C221.669 28.6693 221.676 28.6107 221.676 28.5586C221.676 27.3737 221.461 26.4297 221.031 25.7266C220.602 25.0234 220.029 24.6719 219.312 24.6719C218.974 24.6979 218.629 24.7565 218.277 24.8477C217.926 24.9388 217.607 25.069 217.32 25.2383C217.034 25.3945 216.799 25.5964 216.617 25.8438C216.435 26.0781 216.344 26.3581 216.344 26.6836C216.344 27.0352 216.454 27.3151 216.676 27.5234C216.897 27.7188 217.138 27.9206 217.398 28.1289C217.672 28.3242 217.919 28.5521 218.141 28.8125C218.362 29.0729 218.473 29.431 218.473 29.8867C218.473 30.3685 218.395 30.7721 218.238 31.0977C218.095 31.4102 217.9 31.6641 217.652 31.8594C217.405 32.0547 217.125 32.1979 216.812 32.2891C216.5 32.3672 216.188 32.4062 215.875 32.4062C215.549 32.4062 215.224 32.3542 214.898 32.25C214.586 32.1328 214.299 31.957 214.039 31.7227C213.792 31.4883 213.583 31.1823 213.414 30.8047C213.258 30.4271 213.18 29.9714 213.18 29.4375C213.18 28.7214 213.355 28.0378 213.707 27.3867C214.059 26.7357 214.521 26.1628 215.094 25.668C215.667 25.1732 216.318 24.776 217.047 24.4766C217.776 24.1641 218.518 23.9948 219.273 23.9688C219.977 23.9688 220.738 24.112 221.559 24.3984C222.392 24.6849 223.167 25.1732 223.883 25.8633C224.612 26.5534 225.217 27.4779 225.699 28.6367C226.181 29.7956 226.422 31.2474 226.422 32.9922C226.422 33.8125 226.389 34.5938 226.324 35.3359C226.272 36.0781 226.214 36.7682 226.148 37.4062C226.083 38.0312 226.018 38.6042 225.953 39.125C225.901 39.6458 225.875 40.0951 225.875 40.4727C225.875 40.8503 225.908 41.1497 225.973 41.3711C226.051 41.5924 226.201 41.7227 226.422 41.7617H226.5ZM221.344 38.4805C221.266 38.0378 221.207 37.5755 221.168 37.0938C221.129 36.599 221.109 36.1042 221.109 35.6094V35.082C220.745 34.7826 220.348 34.5612 219.918 34.418C219.501 34.2747 219.124 34.2031 218.785 34.2031C217.965 34.2031 217.34 34.5417 216.91 35.2188C216.48 35.8958 216.266 36.7943 216.266 37.9141C216.266 38.3828 216.311 38.819 216.402 39.2227C216.507 39.6263 216.643 39.9779 216.812 40.2773C216.995 40.5638 217.21 40.7917 217.457 40.9609C217.717 41.1172 218.004 41.1953 218.316 41.1953C218.629 41.1953 218.928 41.1172 219.215 40.9609C219.514 40.8047 219.794 40.6029 220.055 40.3555C220.315 40.0951 220.556 39.8021 220.777 39.4766C220.999 39.151 221.188 38.819 221.344 38.4805ZM232.01 41V21H235.01V25.92C235.117 25.5733 235.317 25.12 235.61 24.56C235.93 23.9733 236.383 23.3867 236.97 22.8C237.557 22.2133 238.29 21.72 239.17 21.32C240.077 20.8933 241.143 20.68 242.37 20.68H242.57V23.68H242.21C240.717 23.68 239.423 24.0933 238.33 24.92C237.263 25.72 236.437 26.7733 235.85 28.08C235.29 29.36 235.01 30.7333 235.01 32.2V41H232.01ZM252.469 16.5455C252.469 16.5455 251.982 18.4451 251.008 22.2444H252.956C253.232 22.2444 253.413 22.3045 253.497 22.4247C253.581 22.5449 253.581 22.7553 253.497 23.0559L253.244 24.0117C253.088 24.5527 252.769 24.8233 252.288 24.8233H250.359L246.445 40.1885C246.301 40.7295 245.934 41 245.345 41H244.642C244.245 41 243.963 40.8858 243.794 40.6573C243.638 40.4289 243.596 40.1464 243.668 39.8097L247.491 24.8233H246.049C245.796 24.8233 245.628 24.7631 245.544 24.6429C245.472 24.5107 245.478 24.2762 245.562 23.9396L245.85 22.9477C245.983 22.4788 246.253 22.2444 246.662 22.2444H248.159L249.619 16.5095C249.764 15.9684 250.136 15.6979 250.738 15.6979H251.657C252.331 15.6979 252.601 15.9805 252.469 16.5455Z" fill="white"/>
</svg>
